<svg xmlns="http://www.w3.org/2000/svg" viewBox="0 0 57.64 57.64"><title>logoCircle</title><g id="Layer_2" data-name="Layer 2"><g id="Layer_1-2" data-name="Layer 1"><path d="M47.83,23.9l1.22-5.28A1.33,1.33,0,0,0,47.75,17H14.06L8.59,40.6a1.35,1.35,0,0,0,1.32,1.65H43.58L44.8,37a1.33,1.33,0,0,0-1.3-1.63h-25l.37-1.59a.85.85,0,0,1,.83-.65H38.91l1.22-5.29a1.33,1.33,0,0,0-1.3-1.64H20.65l.29-1.25a1.27,1.27,0,0,1,1.24-1Z" style="fill:none;stroke:#fff;stroke-miterlimit:10;stroke-width:0.75px"/><path d="M38.82,33a2.48,2.48,0,0,0-2.57-2.39H18.67a2.59,2.59,0,0,0-2.61,2.48,2.4,2.4,0,0,0,2.46,2.23" style="fill:none;stroke:#fff;stroke-miterlimit:10;stroke-width:0.75px"/><path d="M20.65,26.15a2.33,2.33,0,0,1-2.52-2.31,2.48,2.48,0,0,1,2.49-2.48H45.41a2.36,2.36,0,0,1,2.36,2.48" style="fill:none;stroke:#fff;stroke-miterlimit:10;stroke-width:0.75px"/><path d="M9.92,34.88s-.72,4.9,4.22,4.9H41.06a2.58,2.58,0,0,1,2.52,2.48" style="fill:none;stroke:#fff;stroke-miterlimit:10;stroke-width:0.75px"/><circle cx="28.82" cy="28.82" r="28.45" style="fill:none;stroke:#fff;stroke-miterlimit:10;stroke-width:0.75px"/></g></g></svg>