<?xml version="1.0" encoding="utf-8"?>
<!-- Generator: Adobe Illustrator 25.4.1, SVG Export Plug-In . SVG Version: 6.00 Build 0)  -->
<svg version="1.1" id="Layer_1" xmlns="http://www.w3.org/2000/svg" xmlns:xlink="http://www.w3.org/1999/xlink" x="0px" y="0px"
	 viewBox="0 0 963 604.3" style="enable-background:new 0 0 963 604.3;" xml:space="preserve">
<style type="text/css">
	.st0{fill:#FFFFFF;}
	.st1{fill:none;}
	.st2{font-family:'HelveticaNeue-Medium';}
	.st3{font-size:10.8821px;}
	.st4{letter-spacing:11;}
</style>
<g>
	<path class="st0" d="M279.9,357.2l-2.9-4.8c-11.8-19.6-23.9-39.9-27.5-63c-0.2-1.3-0.3-2.5-0.4-3.7c-8.6-2.4-17.9-2.5-26.5,0
		c-1.3,0.4-2.6,0.9-3.9,1.3c-0.3,0.1-0.6,0.2-0.9,0.3c-11.1,4.4-20.6,12.6-29,21.2c-0.7,0.7-9.7,11-12.4,15.7
		c-2.9,5.1-5.7,11.3-12.1,11.7c-3.4,0.2-6.6-1.6-8.7-4.2c-4.3-5.5-4.1-12.4-3.8-19c0.2-5,0.4-10,0.6-15c0-1,0.2-2.2,1-2.8
		c0.8-0.6,1.9-0.4,2.9-0.2c9,2.2,17.4,6.4,24.6,12.1c1.5,1.2,2.2,1.6,3.7,2.9c4-5.1,14.5-17.6,33.2-25.2c-0.1-7.8,0.7-13.9,0.5-21.7
		c0-0.1,0-0.3,0-0.4c0-0.1,0-0.3,0-0.4c0.9-25.7-18.6-18.4-18.8-18.3c-5.1,1.8-9.3,5.3-13.6,8.5c-5.1,3.9-10.6,7.3-16.3,10.2
		c-3.4,1.8-7.8,3.3-11.1,1.7c-0.7-0.3-1-1.2-0.8-1.9c2.3-11.3,4.5-22.5,6.8-33.8c0.9-4.6,5.5-8.4,10.2-8.1c5.3,0.4,9.7,4.2,13.3,7.8
		c4.4,4.5,8.7,7.6,11.8,13.1c0,0.1,8.6-2,12.8,0.7c3.4,2.2,8,5.3,8.2,20.8c2.3,2.1,3.1,2.9,5.7,4.1c7.3,3.3,15.4,5,23.4,5.2
		c1.2-7,3.6-13.4,6.2-19.4c3.8-8.7,7.3-17.8,10.7-26.5c1.7-4.3,3.3-8.6,5-12.8c3.4-8.6,11.5-14.2,20.3-14.8c-0.5-1.7-1-3.3-1.6-4.9
		c-4.1-10.8-11.9-20.6-22.6-25c-6.5-2.7-13.7-3.2-20.8-3.3c-12.5-0.2-26.1,1.3-35.1,10c-2.7,2.5-4.9,5.9-4.9,9.5
		c0,4,2.7,7.5,5.2,10.6c4.6,5.6,11,14.1,17.7,16.9c6.7,2.8,15.3,0.6,15.8-8.4c1.5,8.9-6.1,11.9-12.7,10.7
		c-6.6-1.2-11.7-6.1-16.3-10.9c-16.4-17.6-31.5-39.1-54.9-45.1c-6.6-1.7-13.4-2-20.2-2.2c-9.5-0.4-20-0.4-27,6
		c-7,6.4-7.8,17-7.7,26.5c0.2,19.6,2.2,39.2,6.1,58.4c1.4,6.9,3,13.9,2.7,21c-0.3,7.1-2.8,14.4-8.3,18.8c-6.3,5-15,5.3-23,4.6
		c-8-0.7-16.2-2.2-23.9,0c-1.6,0.5-3.3,1.1-4.3,2.4c-1.4,1.7-1.5,4-1.5,6.2c-0.2,22.5,1.2,45,4.2,67.4c0.4,3.2,3.2,5.6,6.5,5.7
		c74,0.3,148.3-10.6,221.9-4.1C284.9,365.2,282.3,361.2,279.9,357.2z"/>
	<path class="st0" d="M407.7,325.8c0.1-10.3,4.5-19.2,13-25.7c3.6-2.8,7.6-5,11.5-7.2c5.6-3.1,10.8-6,14.9-10.3
		c2.2-2.3,2.8-6,3.4-9.9c1.1-7,2.5-15.6,14.4-19c-15.3-9.9-24.6-22-29.2-37.7c-0.7-2.4-1.3-4.7-1.7-7c-10.3-2.7-21.1-3.2-31.5-0.4
		c-29.8,7.9-20.9,46.6-15.4,61.5c1.1,3.1,4.2,5,7.5,4.7c7.8-0.7,15.3-1.2,19.8-5.5c4.7-4.6,3.1-15.1,0.5-21.1
		c1.7,3.7,3.5,7.5,4,11.6c0.5,4.1-0.4,8.6-3.4,11.4c-2.9,2.7-7,3.5-10.9,4.1c-16.1,2.5-35.7,2.7-51.7,5.9c-15,2.9-21.4,12.6-21.7,25
		c-0.2,8.4,5.2,17.4,8.7,24.6c5,10.3,16,33,9.4,41.8c-3,3.9-7.5,2.9-10-2.1c-6.8-13.4-13.6-26.9-19.8-40.7
		c-2.5-5.4-4.9-10.9-6.8-16.6c-6.2-18.8,22.6-31.7,44.9-57.8c22.3-26.1,7-34.4-4.1-37.3c-7.1-1.9-34.6-10.3-53.5-16.2
		c-10.6-3.3-22,2.2-26.1,12.5c-5.2,13.1-10.1,26.5-15.7,39.4c-5,11.6-8.3,22.6-6.3,35.4c3.8,24.6,17.8,46.5,30,66.9
		c7.1,11.9,15,23.3,23.5,34.2c4.2,5.4,8.5,11,13.3,15.9c3.3,3.4,7.9,9.5,13.3,9c1.9-0.2,3.7-1,5.4-1.8c6.3-3.1,12.1-7.1,18.3-10.3
		c6.5-3.4,13.5-5.2,20.1-8.4c2.2-1.1,4.5-2.1,6.8-3.1c10.3-4.3,15.9-15.6,12.9-26.3c-4.7-16.6-6.3-25.1-6.8-33.5
		C388,321.2,402.5,325.1,407.7,325.8z"/>
	<path class="st0" d="M614.8,361.1c-3.1-0.4-4.7-2-5.5-3.2c-2.8-4.3-0.7-11.3,1-16.8c0.5-1.5,0.9-2.8,1.1-3.8
		c1.1-5.4,2.8-10.9,4.5-16.3c1.1-3.6,2.2-7.2,3.2-10.8c-1.6-0.6-3.5-1.2-6.3-2.8c-6.8-3.8-13.6-10.5-14-18.8
		c-0.4-6.4,5.6-9.8,10-13.1c2.2-1.6,4.1-3.4,6-5.2c-3.8-6.2-8.6-11.9-13.3-17.4l-1.3-1.6c-4.6-5.5-9.7-12.1-11.9-20.2
		c-1-3.6-1.1-6.6-0.5-9.4c1.7-7.3,8.2-9,13.4-10.4l0.6-0.2c5.2-1.4,10.1-2.3,14.8-2.9c2.2-0.3,4.3-0.4,6.4-0.5
		c-3.5-4.6-7.7-8.4-12.5-10.7c-5.7-2.8-11.8-4.8-18.1-5.6c-12.3-1.6-24.2,1.7-35,7.5c-0.5,0.3-1.1,0.6-1.6,0.9
		c-7.6,4.3-14.4,9.9-22.5,13.6c-6.2,2.8-12.9,3.7-19.1,1.7c-1.1-0.4-2.7-1-4.1-1.7l0.1-0.5c2.7,1.1,7.6,2.6,11.8,2
		c24.2-3.3,25.3-23.9,24.4-36.2c-0.9-12.2-11.4-25-23.2-30.5c-11.2-5.2-24.3-6.3-36.4-4.4c-16.6,2.6-33.9,10.5-43.8,24.6
		c-9.5,13.6-9.7,31.5-5.2,47c5.1,17.5,15.9,29.1,31.3,38.3c4.1,2.5,30.7,16,73.6-0.9c13.2-5.2,20.9-16.4,29.2-13.3
		c3.6,1.4,4.8,6.7,5.4,10.2c1.2,7.4-13.8,13.8-17.4,20c-9.5,16.6,7,31.8,4.1,35.7c-8.7,11.5-15.8-27.4-29-43.9
		c-1.4-1.7-1.5-2.1-3.9-2.4c-31.7,8.5-51,2.3-63.1-3.8c-20.1,4-11.9,21-19.4,28.9c-7.3,7.7-18.3,11.3-26.7,17.7
		c-26.2,20.2-5.1,57.9,16.8,71c18.4,11,40.2,16.1,61.6,15c14.4-0.8,31-3.3,41.3-14.4c3.7-4,6.4-9.1,6.8-14.6
		c0.5-5.6-2.2-11.4,0-16.8c0.6-1.5,2.2-2.7,3.7-2.3c1.8,0.5,3.5,21.5,7.1,28.8c3.5,7.1,11.3,12.2,18,15.7c6.5,3.4,13.5,6.4,20.3,9.1
		c5.5,2.2,12.7,3.9,17.9,0.2c5.9-4.1,7.2-12.4,8.3-18.9c0.7-4,1.3-8,1.9-12C622.2,362.1,618.5,361.6,614.8,361.1z M511.6,340.4
		c-0.3,1.5-0.8,3.1-1.7,4.4c-1.2,1.6-3,2.5-4.8,3.3c-9,3.9-19.6,4-28.7,0.5c-6.5-2.5-13.3-8.1-11.5-16c1.6-6.8,10.1-10.1,15.1-14.2
		c3.9-3.1,8.3-6.8,8.6-12.2c0.3-4.2-2.1-9.2,0.9-13c0.8-1.1,2.1-1.6,3.5-1.8c5.5-0.8,10.1,4.2,12.8,9
		C512.5,312.4,514.7,326.9,511.6,340.4z"/>
	<path class="st0" d="M808.4,244.9c0,0,7.6-3.5,14.7,5s-12.5,12.9,2,26.6c14.6,13.7,38-10.1,25.2-24.9
		C837.6,236.9,820.8,232.7,808.4,244.9z"/>
	<path class="st0" d="M809.5,246.4l-5.4,1.1v0c2.6-4.1,6.1-7.6,10.4-9.7c2.9-1.3,5.9-2,9-2.2c0.6-13.1-7.8-28.2-21.6-27
		c-22.6,2-37.5,16.2-33.5,38.2c0,0,1.4-10.5,14.3-11.4c12.8-1,4.6,22.8,27.4,18.1c3.6-0.7,6.4-2.5,8.5-4.8
		C813.6,245.1,809.5,246.3,809.5,246.4z"/>
	<path class="st0" d="M828.7,229.1c0,0,1.6-6,9.1-5.6s1,13.5,14.6,12.5c13.5-1,11.7-26.2-1.5-26.6S828,216.1,828.7,229.1z"/>
	<path class="st0" d="M822.4,380.6c-0.1,0.1-0.2,0.2-0.3,0.3c0,0,0,0,0,0C822.3,380.7,822.4,380.6,822.4,380.6z"/>
	<path class="st0" d="M822.4,380.6c-0.1,0.1-0.2,0.2-0.3,0.3c0,0,0,0,0,0C822.3,380.7,822.4,380.6,822.4,380.6z"/>
	<g>
		<path class="st0" d="M830.9,374.8l-0.5-0.7c-0.2-0.3-0.4-0.5-0.4-0.8c0-0.1,0-0.1-0.1-0.2c0.1-0.6,0-1.1,0-1.4l0,0
			c0,0-0.2-0.6-0.2-0.7l-0.1-0.3c0,0-0.3-0.4-0.3-0.4c-0.3-0.7-0.8-1.1-1.2-1.3l0,0c0,0-0.4-0.2-0.4-0.2c-0.4-0.3-0.9-0.5-1.1-0.5
			l-0.1,0c-0.4-0.1-0.7-0.2-1.1-0.3c-0.1,0-0.3,0-0.5-0.1l-0.1,0l-0.3,0c0,0-0.6,0-0.6,0c-0.2,0-0.3,0-0.5,0c-0.1,0-0.2,0-0.3,0
			l-0.3,0l-0.4,0.1l-0.2,0l-0.1,0l-0.2,0c-0.2,0-0.4,0.1-0.6,0.2c0,0-0.1,0-0.1,0c-0.5,0-0.9,0.2-1.3,0.4l-0.1,0l-0.2,0.2
			c-0.2,0.1-0.3,0.2-0.4,0.3c-0.1,0.1-0.2,0.1-0.2,0.2l-0.4,0.2l-0.3,0.3c-0.1,0.1-0.2,0.2-0.4,0.4c-0.5,0.4-0.9,0.9-1.1,1.2l0,0
			c-0.2,0.3-0.3,0.5-0.5,0.8c-0.2,0.3-0.3,0.6-0.5,1c-0.1,0.1-0.1,0.3-0.2,0.4l-0.1,0.2c0,0-0.3,1.1-0.4,1.2
			c-0.2,0.6-0.3,1.2-0.5,1.8c-0.1,0.6-0.2,1.1-0.3,1.7c0,0-0.1,0.7-0.1,0.9l0,0.2l0,0.5c0,1.2-0.1,2.4,0.1,3.7c0,0.1,0,0.3,0.1,0.5
			l0,0.3l0.1,0.2c0.1,0.5,0.2,0.8,0.3,1.2c0.1,0.3,0.4,1.1,0.4,1.1s0.3,0.6,0.4,0.7c0.1,0.2,0.2,0.4,0.3,0.5
			c0.1,0.2,0.2,0.3,0.3,0.4c0,0.1,0.1,0.1,0.1,0.2l0.2,0.3l0.9,0.9l0.4,0.3c0.1,0.1,0.3,0.1,0.4,0.2l0.4,0.2l0.5,0.1
			c0.2,0,0.4,0.1,0.5,0.1l0.2,0l0.2,0c0.2,0,0.6,0,0.8,0c0.1,0,0.7,0.1,0.7,0.1l0.4-0.1c0.2,0,0.3-0.1,0.4-0.1
			c0.1,0,0.8-0.3,0.8-0.3l0.3-0.1l0.2-0.1c0.2-0.1,0.5-0.2,0.6-0.3c0.3-0.2,0.6-0.4,0.8-0.5c0.2-0.1,0.3-0.2,0.4-0.3l0.2-0.1
			l0.2-0.2l0.3-0.4c0.3-0.3,0.6-0.6,0.8-0.9c0.1-0.1,0.2-0.3,0.3-0.4l0.3-0.4l0.2-0.3c0.2-0.3,0.3-0.5,0.4-0.8
			c0.4-0.7,0.8-1.4,1.2-2.3c0.1-0.2,0.4-0.9,0.4-0.9l0.1-0.3c0.1-0.2,0.1-0.4,0.2-0.6c0.1-0.3,0.2-0.6,0.3-0.9
			c0.2-0.7,0.3-1.4,0.5-2.1l0.1-0.6l0-0.3c0-0.7,0-1.4,0-2L830.9,374.8z"/>
		<path class="st0" d="M851.8,362.2c-0.8-7.3-2.3-14.5-4.4-21.5c-5.8-19.3-17.2-41.2-39.8-42.8c-24.7-1.7-40.4,3.7-55.2,23.5
			c-8.6,11.6,3.4-15.3,22.9-21.9c15.6-5.3,18.7-26.1,17.5-40.2c-0.4-4.6-1.4-9.4-2.9-14c-0.1-0.3-0.3-0.7-0.4-1
			c-2.1-5-3.2-6.7-6.6-6.6c-8.3,0.2-10.5,4.8-12.1,7.8l-2.6,5.4l-0.7-1.8c-1.1-2.9-1.8-5.9-1.9-9c-0.4-7.5,1.7-13.5,6.1-19.3
			c0.3-0.4,0.8-0.9,1.1-1.3c-7.8-6.8-17.7-12.6-27.3-15.4c-11.7-3.4-24.4-3-36.1,0.1c-11.1,3-20.6,10.3-26,20.4
			c-2.9,5.5-5.2,11.4-7.8,17.1c-4,8.8-8.2,17.2-12.7,25.7c-1.7,3.2-2.5,5.1-4.8,8.5c-3.1,4.6-5.9,3.6-5.1,2.1
			c0.8-1.5,7.9-12.1,10.2-16.5c4.8-9.3,10.4-17.7,13.5-27.8c0.6-1.9,1.1-3.9,1.1-5.8c-0.2-9.4-14.5-12.7-22.1-14.8
			c-12.6-3.5-25.8-4.2-38.7-2.6c-4.9,0.6-9.7,1.6-14.5,2.8c-5.4,1.4-11,2.6-12.4,8.8c-0.8,3.3-0.1,6.8,1,10c1.7,5.2,4.5,10,8,14.2
			c10,12,22.4,24.4,24.7,40.7c2.4,17.1-6.7,34.2-10,50.6c-1.1,5.5-7.9,20,1.5,21.2c27.1,3.5,54.3,6.6,81.6,8c0.4-10,2.9-19,4.5-24.8
			c-5-9.1-9.5-18.6-12.1-27.7c-5.3-18.1-3.6-39.3,13.9-51.8c3.6-2.6,8.2-3.8,12.6-2.9c17.3,3.5,7.5,26.4,3.2,37
			c-6.2,15.4-12.3,31.4-16.3,47.8c-1.8,7.5-3.1,15.1-3.8,22.8c-0.5,5.4-0.6,10.8-0.4,16.2c0.2,3.6,0.6,7.2,1.3,10.8
			c18.5,0.2,35.8,0.6,45.9,1.6c20,1.9,68.9,8.9,100.5,13.6C852.1,394.6,853.6,378.2,851.8,362.2z M786.9,382c-1.2,0-2.1-1-2.1-2.1
			s1-2.1,2.1-2.1c1.2,0,2.1,1,2.1,2.1S788,382,786.9,382z M792.2,386.9c-1.6,0-3-1.2-3-2.7c0-1.5,1.3-2.7,3-2.7c1.6,0,3,1.2,3,2.7
			C795.2,385.7,793.8,386.9,792.2,386.9z M800.1,388.4c-0.1,0-0.2,0-0.4,0c-1.1-0.1-2.1-1.2-2.1-2.3l0.7-24.1l-4,2.1
			c-1.9,1-4,1.6-6.2,1.6c-1.3,0-2.4-1.1-2.4-2.4c0-1.3,1.1-2.4,2.4-2.4c2.5,0,4.7-1,6.7-3c2-2,3.3-4.8,4.1-6.7
			c0.2-0.4,1.1-0.9,2-0.9c0.3,0,0.4,0,0.6,0.1c1,0.3,1.8,1.3,1.8,2.3l-0.6,21l5-7.5c4.1-6,8.7-11.8,13.5-17.7c0.4-0.4,1-0.5,1.3-0.5
			c0.7,0,1.5,0.3,1.9,0.7c1.1,1.1,0.6,2.7-0.2,3.6c-8.1,10-17.4,21.4-22,34.5C802.2,387.2,801.6,388.4,800.1,388.4z M832.7,396.7
			c-1.6,0-3-1.2-3-2.7c0-1.5,1.3-2.7,3-2.7c1.6,0,3,1.2,3,2.7C835.7,395.5,834.4,396.7,832.7,396.7z M834.6,383.6
			c-1.4,3.8-3.1,6.6-5.2,8.6c-4,3.8-10.9,5.5-15.7,1.3c-1.7-1.5-2.9-3.4-3.7-5.9c-1.1-3.4-1.1-7.7-0.2-12c0.8-3.4,1.9-6,3.6-8.1
			c1.9-2.4,5-4,8.7-4.5c5.3-0.7,10.8,2.3,12.1,6.8c0.2,0.5,0.3,1,0.3,1.6l0.1,0.6l0.3,0.5c0.2,0.3,0.3,0.6,0.5,1
			c0.1,0.2,0.1,0.4,0.1,0.6C836.1,377.2,835.8,380.4,834.6,383.6z"/>
	</g>
	<g>
		<path class="st0" d="M93.2,253.5c-4-0.6-8.3,0.8-11.1,3.6c-2.9,2.9-4.5,6.7-4.4,10.1c0.1,2.4,0.8,4.4,2.2,6.2
			c1.1,1.3,2.6,2.5,4.8,3.5c1.7,0.8,3.5,1.2,5.3,1.2c2.8,0,5.4-1,7.3-2.8c1.5-1.5,2.1-4.3,0.3-6.2c-0.8-0.9-2.1-1.4-3.3-1.5
			c-1.2,0-2.1,0.4-3.1,1.3c-0.1,0.1-0.2,0.2-0.2,0.2l0,0.1l-0.4,0.1l0,0l0,0l-0.3,0.1l-1-0.1c-0.2,0-0.4-0.1-0.6-0.2
			c-0.2-0.1-0.4-0.2-0.5-0.2l-0.4-0.2c-0.2-0.1-0.4-0.2-0.6-0.4l-0.3-0.2l-0.5-0.6c0,0,0,0,0,0h0l0-0.3c0-0.2,0-0.3,0.1-0.7
			c0.1-0.3,0.2-0.5,0.2-0.7l0.3-0.8c0.2-0.4,0.5-0.8,0.8-1.2l0.5-0.5c0.1-0.1,0.2-0.2,0.4-0.3l0.4-0.3c0.2-0.1,0.4-0.2,0.7-0.3
			c0.4-0.1,0.8-0.2,1-0.2l0.5,0c0.2,0,0.4,0,0.8,0.1c0.2,0,0.4,0.1,0.6,0.2l0.3,0.2c0.1,0.1,0.3,0.2,0.4,0.3l0.1,0.1
			c0,0.1,0.1,0.1,0.1,0.2c0.6,1.1,1.6,1.9,2.7,2.2c1.1,0.3,2.2,0.2,3.1-0.3c2.2-1.2,3-3.8,1.9-5.9C100,256.1,96.9,254,93.2,253.5z"
			/>
		<path class="st0" d="M111.7,256c-2.3-6.9-6.3-10.9-11.9-11.9c-0.3-0.1-0.6-0.1-1,0c-1,0.1-2-0.1-2.9-0.3
			c-6.7-1.9-15.1-1.6-21.1,4.4c-3.6,3.6-4.8,8.3-6,12.8l-0.6,2.2c-1.2,4.1-2.4,8.4-0.5,12.8c1.7,3.9,5.2,7.5,9.5,9.7
			c3.4,1.7,7,2.6,10.9,2.6c1.1,0,2.3-0.1,3.4-0.2c5.1-0.6,9.6-2.3,13.2-4.9c3.7-2.6,6.5-6.8,7.7-11.5
			C113.9,266.9,113.6,261.6,111.7,256z M104.5,268.1c-0.4,2.8-1.8,5.4-3.8,7.2v0c-1.9,1.7-4.5,2.9-8.3,3.7c-3.6,0.8-6.6,0.6-9.3-0.3
			c-2.7-1-5.1-2.9-6.6-5.1c-0.8-1.1-1.1-2-1-2.9c0.1-1.2,0.4-2.4,0.8-3.6l0.3-1.2c0.2-0.8,0.4-1.6,0.6-2.5c0.7-2.8,1.3-5.7,2.9-7.9
			c1.5-2.1,4.1-3.6,7.1-4c0.6-0.1,1.2-0.1,1.8-0.1c2.6,0,5.5,0.8,8.7,2.3c0.5,0.2,1,0.3,1.5,0.3c1.2,0,2.4,0.5,3,1.6
			c0.4,0.8,0.8,1.7,1.2,2.8C104.6,262.2,104.9,265.3,104.5,268.1z"/>
	</g>
	<g>
		<rect x="650.4" y="438.2" class="st1" width="308.2" height="28.8"/>
		<text transform="matrix(1 0 0 1 650.3994 454.4727)"><tspan x="0" y="0" class="st0 st2 st3">Loading...</tspan><tspan x="49.7" y="0" class="st0 st2 st3 st4"> </tspan><tspan x="64.4" y="0" class="st0 st2 st3">Loading...</tspan><tspan x="114.1" y="0" class="st0 st2 st3 st4"> </tspan><tspan x="128.8" y="0" class="st0 st2 st3">Loading...</tspan><tspan x="178.5" y="0" class="st0 st2 st3 st4"> </tspan><tspan x="193.3" y="0" class="st0 st2 st3">Loading...</tspan><tspan x="242.9" y="0" class="st0 st2 st3 st4"> </tspan><tspan x="257.7" y="0" class="st0 st2 st3">Loading...  </tspan></text>
	</g>
	<g>
		<path class="st0" d="M944.3,409.4L944.3,409.4c3.6-5.1,1.4-12.2-4.4-14.3c-27.4-9.9-56.6-14.7-85.7-14c-0.6,10.3-2.8,20.1-6.4,29
			l-0.5,1.3l-1.4-0.2c-28.7-4.2-80-11.7-100.4-13.6c-8.9-0.8-24.3-1.4-45.8-1.6l-1.5,0l-0.3-1.4c-0.7-3.4-1.2-7.1-1.4-11.1
			c-0.2-3.8-0.2-7.7,0.1-11.8c-13.1,1.6-26,4.4-38.5,8.6c-7.4,2.5-15.4,5.4-22.8,2.9c1.2-2.2,1.8-4.7,1.8-7.2
			c-3.5-1.3-7.2-2.2-10.9-2.6c-0.1,0.5-0.2,1-0.2,1.4l-0.1,0.4c-1.2,6.8-2.6,15.3-9,19.7c-2.3,1.6-5.2,2.4-8.4,2.4
			c-3.3,0-7-0.8-11.2-2.5c-7.6-3-14.5-6.1-20.5-9.2c-9.7-5-15.9-10.4-18.8-16.5c-2.8-5.7-10.4,0.8-14.7,5.4
			c-11,11.8-28.5,14.2-42.6,15c-19.7,1-39.5-3.1-56.5-11.8c-9.4,0.9-18.9,1.8-28.3,2.7c-1.5,0.1-3-0.1-4.3-0.9
			c-4.9-3-0.9-9.9-2.5-15c-1.4-4.4-6.7-6.3-11.4-6.5c-0.7,0-1.4-0.1-2.1-0.1c0.6,2.1,1.2,4.3,1.8,6.6c3.3,11.6-2.7,23.8-13.9,28.5
			c-2.2,0.9-4.5,1.9-6.7,3c-3.2,1.5-6.4,2.8-9.6,4c-3.5,1.3-7.1,2.7-10.4,4.4c-2.9,1.5-5.7,3.2-8.5,4.8c-3.2,1.9-6.5,3.8-9.9,5.5
			c-1.7,0.9-3.8,1.8-6,2c-0.3,0-0.6,0-0.8,0c-5.1,0-9.3-4.5-12.4-7.9c-0.5-0.6-1-1.1-1.5-1.6c-4.4-4.5-8.3-9.5-12.1-14.4l-1.3-1.7
			c-5.2-6.6-10.1-13.3-14.7-20.2l-2-0.2c-44.7-3.9-90.4-1.4-134.6,1c-27.6,1.5-56.1,3.1-84.2,3.1c-1,0-1.9,0-2.9,0
			c-4.2,0-7.7-3.1-8.3-7.3c-0.8-6.4-1.6-12.8-2.2-19.2c-12.9,0-25.9,1.6-38.4,4.6c-13.6,3.3-14.5,22.1-1.3,26.7
			c10.8,3.8,23.6,4.7,35.1,4.9c37.2,0.5,74.4,0.9,111.6,1.4c5.2,0.1,7,6.9,2.6,9.6l-0.3,0.2c-7.3,4.3-5.6,15.5,2.7,17.2
			c28,6,60-1.7,88.4,3.5c8.6,1.6,10.8,12.9,3.5,17.7l-0.2,0.2c-3.4,2.3-3.1,7.5,0.6,9.2c6.4,2.9,14,3.4,21.1,3.7
			c54.3,2.2,108.7,1.1,162.9-3.1c2.8-0.2,5.6-1,8.1-2.4c12.3-6.9-2-17.5,10.6-24.4c2.6-1.4,5.6-2.1,8.6-2.2
			c56.6-1,113.3-0.9,169.9,0.2c6.2,0.1,9.6,7.3,5.7,12.2c-0.1,0.1-0.1,0.2-0.2,0.2c-3.2,4-0.3,10,4.8,10c99.2,0.9,198.4,0.9,297.5,0
			c6.9-0.1,10.5-8.2,5.9-13.4c-2.4-2.7-5.2-5-8.3-6.9C943.2,416.2,942.3,412.3,944.3,409.4z"/>
	</g>
</g>
</svg>
