<svg xmlns="http://www.w3.org/2000/svg" viewBox="0 0 962.97 604.26"><defs><style>.cls-1,.cls-3{fill:none;stroke:#fff;stroke-miterlimit:10;}.cls-1{stroke-width:6px;}.cls-2{fill:#fff;}.cls-3{stroke-width:5.5px;}</style></defs><title>white_filled</title><g id="Layer_2" data-name="Layer 2"><g id="Layer_5" data-name="Layer 5"><g id="Layer_8" data-name="Layer 8"><path class="cls-1" d="M930.25,167l28.9-125.18A31.66,31.66,0,0,0,928.3,3H132.92L3.83,562.14A31.93,31.93,0,0,0,35,601.26h795l28.9-125.18A31.66,31.66,0,0,0,828,437.3H238.43a.1.1,0,0,1-.1-.11L247,399.62a20,20,0,0,1,19.5-15.51H719.69l28.9-125.18a31.66,31.66,0,0,0-30.85-38.78H288.59a.13.13,0,0,1-.12-.15l6.84-29.62A30.23,30.23,0,0,1,324.76,167Z"/></g><g id="Layer_7" data-name="Layer 7"><path class="cls-2" d="M717.35,382.43c0-32.45-28.2-56.5-60.65-56.5H241.62c-32.45,0-61.7,26.26-61.7,58.7,0,27.11,24.42,51.7,58.1,52.67l9.35-39.89s4.08-13.23,17.67-13.26,452.31,0,452.31,0Z"/><path class="cls-2" d="M928.84,165.49c0-32.44-22.48-58.7-55.69-58.7H287.76a58.67,58.67,0,0,0-58.7,58.7c0,31.88,24.9,54.66,59.38,54.66l7.57-32.3s5.66-19.45,25.63-20.73,607.2,0,607.2,0Z"/><path class="cls-2" d="M35.1,426.73S11.65,542.82,134.87,542.82l635.61-.25s51.12-1.47,59.44,58.69H35S2.07,600.83,3.32,565Z"/></g><g id="Layer_6" data-name="Layer 6"><path class="cls-3" d="M717.64,382.43c0-32.45-28.21-56.5-60.65-56.5H241.91c-32.45,0-61.71,26.26-61.71,58.7,0,27.11,24.43,51.7,58.11,52.67"/><path class="cls-3" d="M288.44,220.15c-34.48,0-59.38-22.78-59.38-54.66a58.67,58.67,0,0,1,58.7-58.7H873.15c33.21,0,55.69,26.26,55.69,58.7"/><path class="cls-3" d="M35.1,426.73S18.23,542.82,134.87,542.82l635.61-.25s51.12-1.47,59.44,58.69"/></g></g></g></svg>