<svg xmlns="http://www.w3.org/2000/svg" viewBox="0 0 1511 741.5"><title>bluegrid</title><g id="Layer_2" data-name="Layer 2"><g id="Layer_1-2" data-name="Layer 1"><line x1="0.64" y1="0.25" x2="1510.75" y2="0.25" style="fill:none;stroke:blue;stroke-miterlimit:10;stroke-width:0.5px"/><line x1="0.64" y1="28.75" x2="1510.75" y2="28.75" style="fill:none;stroke:blue;stroke-miterlimit:10;stroke-width:0.5px"/><line x1="0.64" y1="57.25" x2="1510.75" y2="57.25" style="fill:none;stroke:blue;stroke-miterlimit:10;stroke-width:0.5px"/><line x1="0.64" y1="85.75" x2="1510.75" y2="85.75" style="fill:none;stroke:blue;stroke-miterlimit:10;stroke-width:0.5px"/><line x1="0.64" y1="114.25" x2="1510.75" y2="114.25" style="fill:none;stroke:blue;stroke-miterlimit:10;stroke-width:0.5px"/><line x1="0.64" y1="142.75" x2="1510.75" y2="142.75" style="fill:none;stroke:blue;stroke-miterlimit:10;stroke-width:0.5px"/><line x1="0.64" y1="171.25" x2="1510.75" y2="171.25" style="fill:none;stroke:blue;stroke-miterlimit:10;stroke-width:0.5px"/><line x1="0.64" y1="199.75" x2="1510.75" y2="199.75" style="fill:none;stroke:blue;stroke-miterlimit:10;stroke-width:0.5px"/><line x1="0.64" y1="228.25" x2="1510.75" y2="228.25" style="fill:none;stroke:blue;stroke-miterlimit:10;stroke-width:0.5px"/><line x1="0.64" y1="256.75" x2="1510.75" y2="256.75" style="fill:none;stroke:blue;stroke-miterlimit:10;stroke-width:0.5px"/><line x1="0.64" y1="285.25" x2="1510.75" y2="285.25" style="fill:none;stroke:blue;stroke-miterlimit:10;stroke-width:0.5px"/><line x1="0.64" y1="313.75" x2="1510.75" y2="313.75" style="fill:none;stroke:blue;stroke-miterlimit:10;stroke-width:0.5px"/><line x1="0.64" y1="342.25" x2="1510.75" y2="342.25" style="fill:none;stroke:blue;stroke-miterlimit:10;stroke-width:0.5px"/><line x1="0.64" y1="370.75" x2="1510.75" y2="370.75" style="fill:none;stroke:blue;stroke-miterlimit:10;stroke-width:0.5px"/><line x1="0.64" y1="399.25" x2="1510.75" y2="399.25" style="fill:none;stroke:blue;stroke-miterlimit:10;stroke-width:0.5px"/><line x1="0.64" y1="427.75" x2="1510.75" y2="427.75" style="fill:none;stroke:blue;stroke-miterlimit:10;stroke-width:0.5px"/><line x1="0.64" y1="456.25" x2="1510.75" y2="456.25" style="fill:none;stroke:blue;stroke-miterlimit:10;stroke-width:0.5px"/><line x1="0.64" y1="484.75" x2="1510.75" y2="484.75" style="fill:none;stroke:blue;stroke-miterlimit:10;stroke-width:0.5px"/><line x1="0.64" y1="513.25" x2="1510.75" y2="513.25" style="fill:none;stroke:blue;stroke-miterlimit:10;stroke-width:0.5px"/><line x1="0.64" y1="541.75" x2="1510.75" y2="541.75" style="fill:none;stroke:blue;stroke-miterlimit:10;stroke-width:0.5px"/><line x1="0.64" y1="570.25" x2="1510.75" y2="570.25" style="fill:none;stroke:blue;stroke-miterlimit:10;stroke-width:0.5px"/><line x1="0.64" y1="598.75" x2="1510.75" y2="598.75" style="fill:none;stroke:blue;stroke-miterlimit:10;stroke-width:0.5px"/><line x1="0.64" y1="627.25" x2="1510.75" y2="627.25" style="fill:none;stroke:blue;stroke-miterlimit:10;stroke-width:0.5px"/><line x1="0.64" y1="655.75" x2="1510.75" y2="655.75" style="fill:none;stroke:blue;stroke-miterlimit:10;stroke-width:0.5px"/><line x1="0.64" y1="684.25" x2="1510.75" y2="684.25" style="fill:none;stroke:blue;stroke-miterlimit:10;stroke-width:0.5px"/><line x1="0.64" y1="712.75" x2="1510.75" y2="712.75" style="fill:none;stroke:blue;stroke-miterlimit:10;stroke-width:0.5px"/><line x1="0.64" y1="741.25" x2="1510.75" y2="741.25" style="fill:none;stroke:blue;stroke-miterlimit:10;stroke-width:0.5px"/><line x1="28.75" y1="0.25" x2="28.75" y2="741.25" style="fill:none;stroke:blue;stroke-miterlimit:10;stroke-width:0.5px"/><line x1="0.25" y1="0.25" x2="0.25" y2="741.25" style="fill:none;stroke:blue;stroke-miterlimit:10;stroke-width:0.5px"/><line x1="85.75" y1="0.25" x2="85.75" y2="741.25" style="fill:none;stroke:blue;stroke-miterlimit:10;stroke-width:0.5px"/><line x1="57.25" y1="0.25" x2="57.25" y2="741.25" style="fill:none;stroke:blue;stroke-miterlimit:10;stroke-width:0.5px"/><line x1="142.75" y1="0.25" x2="142.75" y2="741.25" style="fill:none;stroke:blue;stroke-miterlimit:10;stroke-width:0.5px"/><line x1="114.25" y1="0.25" x2="114.25" y2="741.25" style="fill:none;stroke:blue;stroke-miterlimit:10;stroke-width:0.5px"/><line x1="199.75" y1="0.25" x2="199.75" y2="741.25" style="fill:none;stroke:blue;stroke-miterlimit:10;stroke-width:0.5px"/><line x1="171.25" y1="0.25" x2="171.25" y2="741.25" style="fill:none;stroke:blue;stroke-miterlimit:10;stroke-width:0.5px"/><line x1="256.75" y1="0.25" x2="256.75" y2="741.25" style="fill:none;stroke:blue;stroke-miterlimit:10;stroke-width:0.5px"/><line x1="228.25" y1="0.25" x2="228.25" y2="741.25" style="fill:none;stroke:blue;stroke-miterlimit:10;stroke-width:0.5px"/><line x1="313.75" y1="0.25" x2="313.75" y2="741.25" style="fill:none;stroke:blue;stroke-miterlimit:10;stroke-width:0.5px"/><line x1="285.25" y1="0.25" x2="285.25" y2="741.25" style="fill:none;stroke:blue;stroke-miterlimit:10;stroke-width:0.5px"/><line x1="370.75" y1="0.25" x2="370.75" y2="741.25" style="fill:none;stroke:blue;stroke-miterlimit:10;stroke-width:0.5px"/><line x1="342.25" y1="0.25" x2="342.25" y2="741.25" style="fill:none;stroke:blue;stroke-miterlimit:10;stroke-width:0.5px"/><line x1="427.75" y1="0.25" x2="427.75" y2="741.25" style="fill:none;stroke:blue;stroke-miterlimit:10;stroke-width:0.5px"/><line x1="399.25" y1="0.25" x2="399.25" y2="741.25" style="fill:none;stroke:blue;stroke-miterlimit:10;stroke-width:0.5px"/><line x1="484.75" y1="0.25" x2="484.75" y2="741.25" style="fill:none;stroke:blue;stroke-miterlimit:10;stroke-width:0.5px"/><line x1="456.25" y1="0.25" x2="456.25" y2="741.25" style="fill:none;stroke:blue;stroke-miterlimit:10;stroke-width:0.5px"/><line x1="541.75" y1="0.25" x2="541.75" y2="741.25" style="fill:none;stroke:blue;stroke-miterlimit:10;stroke-width:0.5px"/><line x1="513.25" y1="0.25" x2="513.25" y2="741.25" style="fill:none;stroke:blue;stroke-miterlimit:10;stroke-width:0.5px"/><line x1="598.75" y1="0.25" x2="598.75" y2="741.25" style="fill:none;stroke:blue;stroke-miterlimit:10;stroke-width:0.5px"/><line x1="570.25" y1="0.25" x2="570.25" y2="741.25" style="fill:none;stroke:blue;stroke-miterlimit:10;stroke-width:0.5px"/><line x1="655.75" y1="0.25" x2="655.75" y2="741.25" style="fill:none;stroke:blue;stroke-miterlimit:10;stroke-width:0.5px"/><line x1="627.25" y1="0.25" x2="627.25" y2="741.25" style="fill:none;stroke:blue;stroke-miterlimit:10;stroke-width:0.5px"/><line x1="712.75" y1="0.25" x2="712.75" y2="741.25" style="fill:none;stroke:blue;stroke-miterlimit:10;stroke-width:0.5px"/><line x1="684.25" y1="0.25" x2="684.25" y2="741.25" style="fill:none;stroke:blue;stroke-miterlimit:10;stroke-width:0.5px"/><line x1="769.75" y1="0.25" x2="769.75" y2="741.25" style="fill:none;stroke:blue;stroke-miterlimit:10;stroke-width:0.5px"/><line x1="741.25" y1="0.25" x2="741.25" y2="741.25" style="fill:none;stroke:blue;stroke-miterlimit:10;stroke-width:0.5px"/><line x1="826.75" y1="0.25" x2="826.75" y2="741.25" style="fill:none;stroke:blue;stroke-miterlimit:10;stroke-width:0.5px"/><line x1="798.25" y1="0.25" x2="798.25" y2="741.25" style="fill:none;stroke:blue;stroke-miterlimit:10;stroke-width:0.5px"/><line x1="883.75" y1="0.25" x2="883.75" y2="741.25" style="fill:none;stroke:blue;stroke-miterlimit:10;stroke-width:0.5px"/><line x1="855.25" y1="0.25" x2="855.25" y2="741.25" style="fill:none;stroke:blue;stroke-miterlimit:10;stroke-width:0.5px"/><line x1="940.75" y1="0.25" x2="940.75" y2="741.25" style="fill:none;stroke:blue;stroke-miterlimit:10;stroke-width:0.5px"/><line x1="912.25" y1="0.25" x2="912.25" y2="741.25" style="fill:none;stroke:blue;stroke-miterlimit:10;stroke-width:0.5px"/><line x1="997.75" y1="0.25" x2="997.75" y2="741.25" style="fill:none;stroke:blue;stroke-miterlimit:10;stroke-width:0.5px"/><line x1="969.25" y1="0.25" x2="969.25" y2="741.25" style="fill:none;stroke:blue;stroke-miterlimit:10;stroke-width:0.5px"/><line x1="1054.75" y1="0.25" x2="1054.75" y2="741.25" style="fill:none;stroke:blue;stroke-miterlimit:10;stroke-width:0.5px"/><line x1="1026.25" y1="0.25" x2="1026.25" y2="741.25" style="fill:none;stroke:blue;stroke-miterlimit:10;stroke-width:0.5px"/><line x1="1111.75" y1="0.25" x2="1111.75" y2="741.25" style="fill:none;stroke:blue;stroke-miterlimit:10;stroke-width:0.5px"/><line x1="1083.25" y1="0.25" x2="1083.25" y2="741.25" style="fill:none;stroke:blue;stroke-miterlimit:10;stroke-width:0.5px"/><line x1="1168.75" y1="0.25" x2="1168.75" y2="741.25" style="fill:none;stroke:blue;stroke-miterlimit:10;stroke-width:0.5px"/><line x1="1140.25" y1="0.25" x2="1140.25" y2="741.25" style="fill:none;stroke:blue;stroke-miterlimit:10;stroke-width:0.5px"/><line x1="1225.75" y1="0.25" x2="1225.75" y2="741.25" style="fill:none;stroke:blue;stroke-miterlimit:10;stroke-width:0.5px"/><line x1="1197.25" y1="0.25" x2="1197.25" y2="741.25" style="fill:none;stroke:blue;stroke-miterlimit:10;stroke-width:0.5px"/><line x1="1282.75" y1="0.25" x2="1282.75" y2="741.25" style="fill:none;stroke:blue;stroke-miterlimit:10;stroke-width:0.5px"/><line x1="1254.25" y1="0.25" x2="1254.25" y2="741.25" style="fill:none;stroke:blue;stroke-miterlimit:10;stroke-width:0.5px"/><line x1="1339.75" y1="0.25" x2="1339.75" y2="741.25" style="fill:none;stroke:blue;stroke-miterlimit:10;stroke-width:0.5px"/><line x1="1311.25" y1="0.25" x2="1311.25" y2="741.25" style="fill:none;stroke:blue;stroke-miterlimit:10;stroke-width:0.5px"/><line x1="1396.75" y1="0.25" x2="1396.75" y2="741.25" style="fill:none;stroke:blue;stroke-miterlimit:10;stroke-width:0.5px"/><line x1="1368.25" y1="0.25" x2="1368.25" y2="741.25" style="fill:none;stroke:blue;stroke-miterlimit:10;stroke-width:0.5px"/><line x1="1453.75" y1="0.25" x2="1453.75" y2="741.25" style="fill:none;stroke:blue;stroke-miterlimit:10;stroke-width:0.5px"/><line x1="1425.25" y1="0.25" x2="1425.25" y2="741.25" style="fill:none;stroke:blue;stroke-miterlimit:10;stroke-width:0.5px"/><line x1="1510.75" y1="0.25" x2="1510.75" y2="741.25" style="fill:none;stroke:blue;stroke-miterlimit:10;stroke-width:0.5px"/><line x1="1482.25" y1="0.25" x2="1482.25" y2="741.25" style="fill:none;stroke:blue;stroke-miterlimit:10;stroke-width:0.5px"/></g></g></svg>