<svg xmlns="http://www.w3.org/2000/svg" viewBox="0 0 208.88 222.71"><title>archive</title><g id="Layer_2" data-name="Layer 2"><g id="Layer_1-2" data-name="Layer 1"><path d="M189.37,138.14l-5.82-5.56,2.41-6,22.92,22.43-2.94,7.28-32.29.79,2.53-6.27,8.11-.13Zm.27,12.79c7.87-.08,11.73-.11,14,0l0,0c-1.71-1.37-5.43-4.73-10.27-9.35Z" style="fill:white"/><path d="M175.77,171.69l-8.57-8.24,4.28-4.45,21.36,20.56-10.77,11.19c-4.58,4.75-9.58,5.41-13.3,1.83a6.94,6.94,0,0,1-1.45-8.67c-1.38.71-4.38,2-8.19-1.66l-1-1a26.88,26.88,0,0,0-4.44-3.81l4.43-4.6c1.26.58,2.67,1.88,4.79,3.92l.7.67c2.48,2.39,4.29,2.39,7.5-.94Zm3.41,3.29-5.47,5.69c-2.68,2.78-2.91,5-.88,7s4.16,1.56,6.75-1.13l5.56-5.78Z" style="fill:white"/><path d="M127.16,200.37c-.72-5.34,1-11.22,9.29-14.89,9.44-4.19,17.12.26,20.46,7.79s1.07,16.48-8.22,20.61c-8.14,3.61-14.13.89-17-3.21l5.76-2.56c1.63,1.62,4.45,3.41,9.32,1.24,5.42-2.4,6.64-7.82,4.26-13.19s-7.23-8.61-12.87-6.1c-4.26,1.89-5.3,4.42-5.24,7.75Z" style="fill:white"/><path d="M120.1,222.19l-6.21.11-.22-11.42-15,.29.22,11.42-6.22.12-.56-29.65,6.21-.11.25,13.22,15-.28-.25-13.23,6.22-.12Z" style="fill:white"/><path d="M71.26,217.48l8-28.54,6,1.67-8,28.55Z" style="fill:white"/><path d="M64.93,182.8,60,214.56,54.16,211l2.77-15.49c1-5.81,1.75-8.67,2.25-10.53l-.07,0c-1.25,1.16-2.84,2.4-8.52,6.86l-12.45,9.42-5.7-3.48L58.65,179Z" style="fill:white"/><path d="M22.2,159.55,32.53,173l6.26-4.82L27.33,153.27l4.43-2.51L46.57,170,23.08,188.08,8.39,169l4-3.07,10.89,14.14L28.54,176,18.21,162.62Z" style="fill:white"/><path d="M10.33,125.55l4.87-1.11,3.07,13.47L13.4,139Z" style="fill:white"/><path d="M19.4,83.6l5.77,5.62L22.7,95.16,0,72.51l3-7.26,32.29-.46L32.71,71l-8.11,0Zm-.15-12.79c-7.87,0-11.72,0-14-.18v0c1.7,1.39,5.38,4.78,10.17,9.45Z" style="fill:white"/><path d="M33.34,50.2l8.48,8.33-4.33,4.41L16.33,42.17,27.22,31.08c4.62-4.71,9.63-5.32,13.32-1.7a7,7,0,0,1,1.36,8.69c1.39-.7,4.4-2,8.18,1.73l1,1a26.38,26.38,0,0,0,4.4,3.84L51,49.18c-1.26-.58-2.66-1.91-4.76-4l-.69-.68c-2.46-2.41-4.27-2.43-7.51.87ZM30,46.88l5.53-5.63c2.71-2.76,3-5,1-7s-4.15-1.6-6.76,1.07l-5.62,5.72Z" style="fill:white"/><path d="M82.25,22c.66,5.34-1.15,11.21-9.45,14.79-9.48,4.1-17.11-.43-20.38-8s-.9-16.49,8.43-20.52C69,4.74,75,7.52,77.82,11.65L72,14.15c-1.62-1.63-4.42-3.44-9.32-1.33C57.29,15.17,56,20.57,58.34,26s7.13,8.68,12.8,6.23c4.28-1.85,5.34-4.37,5.32-7.7Z" style="fill:white"/><path d="M89.51.25,95.73.19l.1,11.43,15-.14L110.72.06,116.94,0l.27,29.65-6.22.06-.12-13.23-15,.14L96,29.85l-6.22,0Z" style="fill:white"/><path d="M138.26,5.43,130,33.9l-6-1.73,8.28-28.48Z" style="fill:white"/><path d="M144.3,40.19l5.2-31.7,5.84,3.65-2.92,15.45c-1.1,5.8-1.84,8.66-2.36,10.51l.07,0c1.26-1.15,2.87-2.37,8.59-6.77l12.54-9.29,5.66,3.53L150.53,44.09Z" style="fill:white"/><path d="M186.79,63.88,176.6,50.37l-6.31,4.75,11.3,15-4.45,2.47L162.52,53.19,186.2,35.34l14.49,19.22-4,3L185.92,43.34l-5.3,4,10.19,13.52Z" style="fill:white"/><path d="M198.32,98l-4.88,1.06-2.94-13.5,4.88-1.06Z" style="fill:white"/></g></g></svg>
