<svg xmlns="http://www.w3.org/2000/svg" viewBox="0 0 214.66 223.63"><title>resume</title><g id="Layer_2" data-name="Layer 2"><g id="Layer_1-2" data-name="Layer 1"><path d="M195.88,140.77l-11-4.39,2.29-5.74,27.54,11-5.75,14.44c-2.44,6.12-6.83,8.62-11.62,6.71a6.94,6.94,0,0,1-4.62-7.48c-1,1.17-3.3,3.52-8.21,1.56l-1.29-.51a26,26,0,0,0-5.55-1.85l2.37-5.93c1.38,0,3.19.73,5.92,1.81l.89.36c3.2,1.28,4.88.59,6.59-3.7Zm4.4,1.76-2.92,7.33c-1.43,3.59-.79,5.74,1.82,6.79,2.46,1,4.44-.14,5.82-3.61l3-7.45Z" style="fill:#fff"/><path d="M168,184.73l11.52-12.4L173.76,167,161,180.7l-3.2-3.95L174.31,159,196,179.17l-16.4,17.62-3.69-3.43,12.16-13.07-4.85-4.52-11.53,12.39Z" style="fill:#fff"/><path d="M154,189.21c-2.09-2.16-4.94-2.91-9.61-.61-4.49,2.21-5.21,4.44-4.25,6.4s3,2.67,9.45.74c9.59-2.86,12.76-.9,14.52,2.68,2.52,5.12-1,10.25-7.18,13.27-9,4.42-13.61.9-15.36-1.9l5.58-2.74c1.17,1.25,3.08,2.74,7.87.38,3.31-1.63,4.68-3.61,3.68-5.64-.88-1.78-2.43-2.18-8.25-.49-10.82,3.13-13.89.89-15.76-2.91-2.21-4.49-.48-9.92,8.15-14.17,8.06-4,13.57-2.19,16.78,2.22Z" style="fill:#fff"/><path d="M123,222l-1.32-16.75c-.53-6.74-4.35-8.21-8.29-7.9-4.36.34-7,2.49-6.49,9.06l1.32,16.75-6.19.49-1.34-16.87c-.72-9.17,4-13.71,12.52-14.39,8.29-.65,13.91,2.82,14.64,12l1.35,17.09Z" style="fill:#fff"/><path d="M63.53,195.1c-1.87,4.9-3.75,9.85-5.06,12.81l0,0c3.21-4.31,10-12.2,17.27-20.84L80.89,189c-.55,9.59-.85,21.38-1.26,26.93h0c1-3.29,2.9-8.91,4.69-13.63l4-10.48,5.26,2L83.07,221.58l-8.36-3.18c.17-9.91.25-19.94.71-23.63l0,0c-2.76,3.58-9.22,10.88-15.37,18.07l-8.44-3.21,10.54-27.72L67.74,184Z" style="fill:#fff"/><path d="M31.81,170.22l12,12,5.58-5.59L36.08,163.32l4.07-3.06,17.18,17.16-20.95,21-17-17,3.57-3.57,12.63,12.61,4.69-4.69-12-12Z" style="fill:#fff"/><path d="M12.77,124.42l4.89-1,2.84,13.52-4.89,1Z" style="fill:#fff"/><path d="M18.76,80.33,29.68,85l-2.43,5.67L0,79,6.13,64.71c2.61-6.06,7.06-8.44,11.8-6.4a7,7,0,0,1,4.42,7.61c1-1.16,3.39-3.44,8.25-1.35l1.28.55a26.7,26.7,0,0,0,5.49,2L34.85,73c-1.37-.09-3.17-.81-5.87-2l-.89-.39c-3.16-1.35-4.85-.71-6.68,3.53ZM14.4,78.46l3.12-7.26c1.52-3.55.94-5.72-1.64-6.83s-4.44,0-5.92,3.45L6.8,75.19Z" style="fill:#fff"/><path d="M47.8,37.12,35.94,49.2l5.64,5.53,13.15-13.4,3.09,4-17,17.33L19.66,41.92,36.52,24.75l3.6,3.53L27.61,41l4.74,4.65L44.2,33.59Z" style="fill:#fff"/><path d="M61.88,33c2,2.21,4.86,3,9.6.85,4.54-2.08,5.32-4.3,4.41-6.28s-2.88-2.74-9.42-1c-9.67,2.59-12.78.56-14.45-3.07-2.39-5.19,1.31-10.22,7.53-13.08,9.08-4.18,13.63-.53,15.3,2.3l-5.65,2.6c-1.14-1.28-3-2.82-7.85-.59-3.36,1.54-4.78,3.49-3.83,5.55.82,1.79,2.37,2.24,8.23.7,10.9-2.84,13.91-.53,15.68,3.33,2.09,4.54.22,9.93-8.52,14-8.17,3.76-13.63,1.83-16.72-2.67Z" style="fill:#fff"/><path d="M93.75,1.09l.88,16.78c.35,6.75,4.13,8.32,8.07,8.12,4.36-.23,7.07-2.3,6.73-8.89L108.56.32,114.77,0l.88,16.9c.47,9.19-4.34,13.6-12.9,14.05-8.31.43-13.84-3.2-14.32-12.42L87.55,1.41Z" style="fill:#fff"/><path d="M152.52,29.54c2-4.86,4-9.75,5.38-12.68l0,0c-3.32,4.22-10.3,11.94-17.81,20.38L135,35.15c.8-9.57,1.41-21.35,2-26.89l0,0c-1.11,3.27-3.13,8.84-5,13.51l-4.26,10.37L122.41,30,133.68,2.55,142,6c-.43,9.9-.78,19.93-1.34,23.6l0,0c2.85-3.51,9.5-10.63,15.83-17.65l8.36,3.43L153.57,42.78,148,40.49Z" style="fill:#fff"/><path d="M183.53,55.25,171.88,43l-5.73,5.44L179.08,62l-4.14,3-16.72-17.6L179.72,27l16.57,17.45-3.65,3.47-12.3-12.94-4.81,4.57,11.66,12.27Z" style="fill:#fff"/><path d="M201.37,101.57l-4.91.89L194,88.87l4.92-.89Z" style="fill:#fff"/></g></g></svg>