<svg xmlns="http://www.w3.org/2000/svg" viewBox="0 0 102.31 102.31"><title>Scroll_1</title><g id="Layer_2" data-name="Layer 2"><g id="Layer_1-2" data-name="Layer 1"><circle cx="51.15" cy="51.15" r="50.65" style="fill:none;stroke:#fff;stroke-miterlimit:10"/><path d="M17.41,42.9c1-.08,1.8-.6,2.16-2.15s-.1-2.29-.84-2.46-1.35.14-2.17,2.11c-.95,2.27-1.82,2.66-2.9,2.41-1.39-.32-1.87-1.81-1.47-3.53.59-2.57,2.07-2.86,2.89-2.76l-.26,1.12c-.58,0-1.37.21-1.75,1.87-.27,1.14-.05,2,.74,2.14.64.15,1.13-.07,1.85-1.8,1.15-2.73,2.13-3,3.23-2.73S21,38.66,20.44,41c-.51,2.2-1.78,3.07-3.3,3Z" style="fill:#fff"/><path d="M22.88,28.74a3.54,3.54,0,0,1,.48,4.53A3.94,3.94,0,0,1,17.71,35a4.08,4.08,0,0,1-1.78-5.69c1.09-2.06,2.71-2.46,4-2.12l-.55,1a2.48,2.48,0,0,0-2.66,1.53,3,3,0,0,0,1.48,4.16,3,3,0,0,0,4.3-1.13,2.46,2.46,0,0,0-.2-3Z" style="fill:#fff"/><path d="M24,25.72l2.57,2.35-.76.83-6-5.46,2.6-2.85c1.12-1.21,2.43-1.53,3.48-.56a1.84,1.84,0,0,1,.43,2.4,1.74,1.74,0,0,1,2.31.4l.26.24a9.15,9.15,0,0,0,1.27,1l-.79.85a6,6,0,0,1-1.28-1l-.2-.17c-.88-.81-1.47-.72-2.43.33Zm-.69-.64,1.65-1.79c.85-.93.95-1.7.23-2.35s-1.39-.43-2.22.47l-1.67,1.83Z" style="fill:#fff"/><path d="M35.92,15.37a4.07,4.07,0,0,1-1.35,5.86,4.06,4.06,0,0,1-5.85-1.34,4.25,4.25,0,0,1,7.2-4.52Zm-6.19,3.86a3.06,3.06,0,0,0,4.36,1.17A3,3,0,0,0,34.91,16a3,3,0,0,0-4.35-1.12A3,3,0,0,0,29.73,19.23Z" style="fill:#fff"/><path d="M36.89,10.76,38,10.41l2.17,6.78,4.64-1.49.14,1-5.57,1.78Z" style="fill:#fff"/><path d="M45.21,8.5l1.14-.11L47,15.47,51.87,15l-.08,1L46,16.55Z" style="fill:#fff"/><line x1="53.15" y1="36.99" x2="53.15" y2="72.54" style="fill:none;stroke:#fff;stroke-miterlimit:10"/><polyline points="38.05 57.44 53.15 72.54 68.26 57.44" style="fill:none;stroke:#fff;stroke-miterlimit:10"/></g></g></svg>