<svg xmlns="http://www.w3.org/2000/svg" viewBox="0 0 102.31 102.31"><title>Top_1</title><g id="Layer_2" data-name="Layer 2"><g id="Layer_1-2" data-name="Layer 1"><circle cx="51.15" cy="51.15" r="50.65" style="fill:none;stroke:#fff;stroke-miterlimit:10"/><path d="M11.81,42.83l-.56,3-.95-.18,1.33-7.19.95.18-.56,3L19,43l-.21,1.13Z" style="fill:#fff"/><path d="M19.53,30.24a4.25,4.25,0,0,1-3.62,7.69,4.25,4.25,0,0,1,3.62-7.69ZM16.4,36.83a3.06,3.06,0,0,0,4.3-1.37A3,3,0,0,0,19,31.34a3.05,3.05,0,0,0-4.26,1.41A3,3,0,0,0,16.4,36.83Z" style="fill:#fff"/><path d="M22.48,22l-2.19,2.17-.68-.69,5.19-5.15.69.69L23.3,21.14l5,5.05L27.5,27Z" style="fill:#fff"/><path d="M27,16.58,28,16l1.66,2.81,4.19-2.47-1.66-2.81,1-.59,4.11,7-1,.58-2-3.31-4.19,2.47,2,3.31-1,.59Z" style="fill:#fff"/><path d="M43.76,14l-4.67,1.32.76,2.7L45,16.57l.11,1L39,19.27l-2.2-7.78,6-1.7.26.92-4.92,1.38.65,2.31,4.68-1.32Z" style="fill:#fff"/><path d="M52,10.18,48.92,10l0-1,7.31.37-.05,1-3.07-.16-.37,7.11-1.15-.06Z" style="fill:#fff"/><path d="M65.49,16.15a4.25,4.25,0,1,1-8.1-2.56,4.25,4.25,0,0,1,8.1,2.56Zm-6.95-2.22A3.06,3.06,0,0,0,60.47,18a3,3,0,0,0,3.86-2.2,3,3,0,0,0-2-4A3,3,0,0,0,58.54,13.93Z" style="fill:#fff"/><path d="M69.7,13.89,72.91,16c1.69,1.08,1.9,2.45,1.18,3.58-.86,1.34-2.26,1.5-3.77.52L68.05,18.6,66.3,21.33l-1-.62Zm-1.13,3.9,2.13,1.36c.94.6,1.77.75,2.4-.23.49-.77.26-1.55-.82-2.23l-2.13-1.37Z" style="fill:#fff"/><line x1="52.15" y1="72.54" x2="52.15" y2="36.99" style="fill:none;stroke:#fff;stroke-miterlimit:10"/><polyline points="67.26 52.09 52.15 36.98 37.05 52.09" style="fill:none;stroke:#fff;stroke-miterlimit:10"/></g></g></svg>