<svg id="Layer_1" data-name="Layer 1" xmlns="http://www.w3.org/2000/svg" viewBox="0 0 241.37 197.68"><title>tempLogo</title><path d="M269,149.65c2.54,14.88-1.68,27.94-8.75,40.43-11.13,19.67-27.9,32.25-49.07,39.36-20.41,6.86-41.12,8.93-62.19,3.45-16.86-4.38-32-11.82-43.38-25.57-7.64-9.23-12.9-19.74-16.78-31-.24-.71-.47-1.43-.73-2.13-.14-.38-.33-.75-.64-1.42l-4.57.94c-6.85,1.4-13.7,2.84-20.58,4.16a3,3,0,0,0-2.78,2.79,35.12,35.12,0,0,1-2.8,9c-2.91,5.74-8,6.59-13,2.45-4.33-3.6-7.06-8.37-9.21-13.47-4.89-11.64-7.25-23.74-5.63-36.35a32.43,32.43,0,0,1,3.24-10.38c2.62-5.11,7.44-6.08,11.9-2.43,2.65,2.16,4.68,5.11,6.82,7.84.82,1.06,1.45,1.51,2.84,1.22q12.48-2.66,25-5.1c1.73-.33,2-1.12,2-2.71-.27-14.51,1.9-28.58,8.3-41.74,9.76-20.07,25.24-34.17,45.91-42.3,19.93-7.84,40.56-10.54,61.77-6.4s37.24,15.93,49.77,33c8.09,11,13.13,23.5,16.19,36.77,1.78,7.71,3.32,15.48,5.1,23.19.51,2.17-.13,2.84-2.25,3.27q-59.66,12.09-119.28,24.34l-3.48.71c3.66,10.92,9.29,19.87,20.34,24,13.09,4.85,25.78,3,37.74-3.72,7.06-4,10.92-10.59,12.93-18.26a3.94,3.94,0,0,1,3.55-3.36c16.43-3.26,32.83-6.66,49.24-10ZM215.14,115.6l-3.33.67-117.54,24c-2.94.6-5.86,1.27-8.8,1.86-13.55,2.76-27.11,5.48-40.65,8.29A2.38,2.38,0,0,0,43.24,152c-.91,6-.3,11.62,3.74,16.51a4.11,4.11,0,0,0,4.54,1.59c15.81-3.32,31.65-6.51,47.49-9.74l40.16-8.19,114.62-23.44c.86-.17,1.71-.42,2.41-.6-.94-4.6-1.78-8.93-2.71-13.23-2.51-11.56-6.39-22.6-13-32.51-11.73-17.62-27.44-29.43-48.77-32.88-15.35-2.48-30.38-.62-45.17,3.61a78.22,78.22,0,0,0-25.86,12.67c-19.56,14.79-29.22,34.67-30.08,59-.07,2,0,3.94,0,6.21l3-.61L121,124.74c5.06-1,5-1,5.46-6.24,1.11-12.39,5.15-23.44,15.2-31.45,8-6.33,17.34-9.18,27.34-9.82C194.28,75.59,210.83,91.34,215.14,115.6ZM259.62,162a9.65,9.65,0,0,0-1.16.1c-11.51,2.34-23,4.66-34.51,7.12a3.9,3.9,0,0,0-2.27,2.12,40.52,40.52,0,0,1-9.12,13.87c-7.61,7.41-17.1,10.66-27.32,12.3-20.75,3.35-38.92-5.32-48-23.39a11.21,11.21,0,0,0-8.39-6.57,36.21,36.21,0,0,0-8.39-.93c-7.88.34-14.64,3.1-18.82,10.27a4.48,4.48,0,0,0-.51,3.46c5.55,13.21,13.31,24.78,25.7,32.55a87.42,87.42,0,0,0,39.47,12.89c13.83,1.21,27.25-1.11,40.36-5.25,22.63-7.15,39.32-21.16,48.92-43.13A44,44,0,0,0,259.62,162Zm-57-54c-3-8.19-8-14.25-15.72-17.85-9.4-4.35-19-3.71-28.52-.7C150.92,91.75,144.83,96,141,103.06a40.32,40.32,0,0,0-4.67,18.44Z" transform="translate(-28.39 -38.34)"/></svg>